<svg width="69" height="80" viewBox="0 0 69 80" fill="none" xmlns="http://www.w3.org/2000/svg">
<path d="M34.1176 5.88235C37.2378 5.88235 40.2302 7.12184 42.4365 9.32815C44.6428 11.5345 45.8823 14.5269 45.8823 17.6471H51.7647C51.7647 12.9668 49.9055 8.47817 46.596 5.1687C43.2865 1.85924 38.7979 0 34.1176 0C29.4373 0 24.9488 1.85924 21.6393 5.1687C18.3298 8.47817 16.4706 12.9668 16.4706 17.6471H22.3529C22.3529 14.5269 23.5924 11.5345 25.7987 9.32815C28.005 7.12184 30.9974 5.88235 34.1176 5.88235Z" fill="#60B257"/>
<path d="M68.2353 17.6471H51.1765V34.6524H45.4902V23.3155V17.6471H22.7451V23.3155V34.6524H17.0588V17.6471H0V80H68.2353V17.6471Z" fill="#57C1D6"/>
<path fill-rule="evenodd" clip-rule="evenodd" d="M52.9412 36.4171H43.7255V19.4118H24.5098V36.4171H15.2941V19.4118H1.76471V78.2353H66.4706V19.4118H52.9412V36.4171ZM68.2353 17.6471V80H0V17.6471H17.0588V34.6524H22.7451V17.6471H45.4902V34.6524H51.1765V17.6471H68.2353Z" fill="#595959"/>
<path fill-rule="evenodd" clip-rule="evenodd" d="M34.1176 4.11765C37.7059 4.11765 41.1471 5.54306 43.6844 8.08032C45.802 10.198 47.1452 12.9454 47.5315 15.8824H49.9017C49.5035 12.3194 47.9077 8.97612 45.3482 6.41654C42.3696 3.43802 38.3299 1.76471 34.1176 1.76471C29.9054 1.76471 25.8656 3.43802 22.8871 6.41654C20.3275 8.97612 18.7318 12.3194 18.3336 15.8824H20.7038C21.0901 12.9454 22.4332 10.198 24.5509 8.08032C27.0882 5.54306 30.5294 4.11765 34.1176 4.11765ZM16.4706 17.6471C16.4706 17.0551 16.5003 16.4662 16.559 15.8824C16.9641 11.8502 18.7484 8.05958 21.6393 5.1687C24.9488 1.85924 29.4373 0 34.1176 0C38.7979 0 43.2865 1.85924 46.596 5.1687C49.4869 8.05958 51.2712 11.8502 51.6763 15.8824C51.735 16.4662 51.7647 17.0551 51.7647 17.6471H45.8823C45.8823 14.5269 44.6429 11.5345 42.4365 9.32815C40.2302 7.12184 37.2378 5.88235 34.1176 5.88235C30.9974 5.88235 28.005 7.12184 25.7987 9.32815C23.5924 11.5345 22.3529 14.5269 22.3529 17.6471H16.4706Z" fill="#595959"/>
</svg>
