<svg width="85" height="80" viewBox="0 0 85 80" fill="none" xmlns="http://www.w3.org/2000/svg">
<path d="M2.79333 40.581C1.25297 40.581 0 41.8314 0 43.3685V51.233C0 52.7702 1.25297 54.0208 2.79333 54.0208H5.34649C5.26739 53.4911 5.22757 52.9543 5.22757 52.4134V42.1884C5.22757 41.6475 5.26739 41.1107 5.34649 40.581H2.79333Z" fill="#60B257"/>
<path fill-rule="evenodd" clip-rule="evenodd" d="M2.79333 42.3377C2.21981 42.3377 1.75676 42.805 1.75676 43.3685V51.233C1.75676 51.7967 2.21996 52.264 2.79333 52.264H3.47081V42.3377H2.79333ZM2.79333 40.581C1.25297 40.581 0 41.8314 0 43.3685V51.233C0 52.7702 1.25297 54.0208 2.79333 54.0208H5.34649C5.26739 53.4911 5.22757 52.9543 5.22757 52.4134V42.1884C5.22757 41.6475 5.26739 41.1107 5.34649 40.581H2.79333Z" fill="#595959"/>
<path d="M78.9782 54.0208H81.5312C83.0714 54.0208 84.3243 52.7704 84.3243 51.2333V43.3691C84.3243 41.8322 83.0714 40.5815 81.5312 40.5815H78.9787C79.0575 41.11 79.0971 41.6453 79.0971 42.1848V52.4134C79.0971 52.9543 79.0573 53.4909 78.9782 54.0208Z" fill="#60B257"/>
<path d="M73.474 31.5852V36.3802C75.1003 37.8369 76.1519 39.9371 76.0892 42.1843V52.4133C76.1659 54.8778 74.9416 57.0643 73.1184 58.498C72.6339 58.9181 70.89 59.6799 70.0785 60.0083C68.5894 60.391 66.9879 60.3398 65.4782 59.7115C64.3623 59.2886 63.6126 58.2043 63.6126 57.0139V37.5861C63.6126 36.3968 64.3614 35.3133 65.482 34.8888C66.4025 34.5396 67.3501 34.3674 68.289 34.3674C69.1827 34.3522 70.0585 34.5124 70.8823 34.8141V31.5852C70.8823 15.5955 57.9987 2.58667 42.1625 2.58667C26.3263 2.58667 13.4427 15.5955 13.4427 31.5852V34.8157C14.2674 34.5135 15.1445 34.353 16.0393 34.3679C16.9782 34.3679 17.9265 34.5404 18.8472 34.8895C19.9632 35.3126 20.713 36.3969 20.713 37.5874V57.0144C20.713 58.2049 19.9632 59.2892 18.8472 59.7122C13.9443 61.7521 8.07026 57.7259 8.23584 52.4137V42.1885C8.17314 39.9404 9.22449 37.8398 10.8508 36.3825V31.5852C10.8508 14.1692 24.8969 0 42.1623 0C59.4277 0 73.474 14.1692 73.474 31.5852Z" fill="#57C1D6"/>
<path fill-rule="evenodd" clip-rule="evenodd" d="M12.6076 36.9926L14.0471 36.4652C14.6828 36.2323 15.3455 36.1133 16.0099 36.1244L16.0246 36.1247H16.0393C16.7619 36.1247 17.4993 36.2572 18.2242 36.5321C18.6598 36.6972 18.9562 37.1292 18.9562 37.5874V57.0144C18.9562 57.4726 18.66 57.9045 18.2245 58.0696L18.1983 58.0795L18.1724 58.0903C16.3556 58.8462 14.2859 58.5057 12.6356 57.372C10.9858 56.2387 9.9305 54.4335 9.99175 52.4684L9.9926 52.4411V42.164L9.99192 42.1395C9.94557 40.4778 10.7259 38.8533 12.0232 37.6909L12.6076 37.1672V36.9926ZM71.7173 37.1651V36.9906L70.2783 36.4637C69.6434 36.2313 68.982 36.1127 68.3187 36.1239L68.3039 36.1241H68.289C67.5663 36.1241 66.8297 36.2565 66.105 36.5314C65.6637 36.6986 65.3694 37.1307 65.3694 37.5861V57.0139C65.3694 57.4722 65.6656 57.9039 66.1007 58.0688L66.1271 58.0788L66.1532 58.0896C67.2764 58.5571 68.484 58.6042 69.6413 58.3068L71.4506 57.8419L71.5056 57.5314L72.0325 57.1171C73.4867 55.9735 74.3901 54.2917 74.3333 52.468L74.3324 52.4407V42.1598L74.3331 42.1353C74.3794 40.4748 73.5992 38.8507 72.3019 37.6887L71.7173 37.1651ZM68.1548 60.2503C68.8058 60.2535 69.4521 60.1693 70.0785 60.0083C69.8829 60.6645 69.6534 61.305 69.3921 61.9277C66.899 67.8701 61.5115 72.1988 54.9984 73.1883C54.3993 71.1315 52.5016 69.6283 50.2515 69.6283H44.2281C41.4971 69.6283 39.2832 71.8422 39.2832 74.5732V75.0551C39.2832 77.7861 41.4971 80 44.2281 80H50.2515C52.7324 80 54.7861 78.173 55.1416 75.791C64.0259 74.6279 71.558 67.2984 73.1184 58.498C74.9416 57.0643 76.1659 54.8778 76.0892 52.4133V42.1843C76.1519 39.9371 75.1003 37.8369 73.474 36.3802V31.5852C73.474 14.1692 59.4277 0 42.1623 0C24.8969 0 10.8508 14.1692 10.8508 31.5852V36.3825C9.22449 37.8398 8.17314 39.9404 8.23584 42.1885V52.4137C8.07026 57.7259 13.9443 61.7521 18.8472 59.7123C19.9632 59.2892 20.713 58.2049 20.713 57.0144V37.5874C20.713 36.3969 19.9632 35.3126 18.8472 34.8895C17.9265 34.5404 16.9782 34.3679 16.0393 34.3679C15.7572 34.3632 15.4769 34.3759 15.1994 34.405C14.5967 34.4683 14.0074 34.6088 13.4427 34.8157V31.5852C13.4427 15.5955 26.3263 2.58667 42.1625 2.58667C57.9987 2.58667 70.8823 15.5955 70.8823 31.5852V34.8141C70.3175 34.6073 69.7283 34.467 69.1256 34.404C68.8492 34.3752 68.57 34.3626 68.289 34.3674C67.3501 34.3674 66.4025 34.5396 65.482 34.8888C64.3614 35.3133 63.6126 36.3968 63.6126 37.5861V57.0139C63.6126 58.2043 64.3623 59.2887 65.4782 59.7115C66.3528 60.0755 67.2582 60.2458 68.1548 60.2503ZM53.5556 74.5168L53.4041 75.5317C53.1751 77.0661 51.8492 78.2432 50.2515 78.2432H44.2281C42.4673 78.2432 41.04 76.8159 41.04 75.0551V74.5732C41.04 72.8124 42.4673 71.385 44.2281 71.385H50.2515C51.6988 71.385 52.9249 72.3516 53.3117 73.6796L53.5556 74.5168Z" fill="#595959"/>
<path fill-rule="evenodd" clip-rule="evenodd" d="M80.8539 52.2641H81.5312C82.1045 52.2641 82.5676 51.7968 82.5676 51.2333V43.3691C82.5676 42.8057 82.1044 42.3383 81.5312 42.3383H80.8539V52.2641ZM81.5312 54.0208C83.0714 54.0208 84.3243 52.7704 84.3243 51.2333V43.3691C84.3243 41.8322 83.0714 40.5815 81.5312 40.5815H78.9787C79.0575 41.11 79.0971 41.6453 79.0971 42.1848V52.4134C79.0971 52.9543 79.0573 53.4909 78.9782 54.0208H81.5312Z" fill="#595959"/>
</svg>
