<svg width="81" height="80" viewBox="0 0 81 80" fill="none" xmlns="http://www.w3.org/2000/svg">
<path d="M41.4129 31.395L33.7639 39.044L24.06 29.34C23.8317 29.1117 23.4892 28.7692 23.375 28.4267C18.466 30.4817 12.5295 29.4542 8.53378 25.4585C4.53805 21.4628 3.51058 15.6404 5.45136 10.7314L11.3879 16.6679C13.557 18.837 16.9819 18.837 19.151 16.6679C21.3201 14.4988 21.3201 11.0739 19.151 8.90477L13.2145 2.96827C18.1235 1.02749 23.9459 2.05496 27.9416 6.05069C31.9373 10.0464 32.9648 15.9829 30.9098 21.0061C31.2523 21.2344 31.4807 21.4628 31.8231 21.6911L41.4129 31.395Z" fill="#60B257"/>
<path d="M77.146 67.0139L71.0954 60.9632C68.9262 58.7941 65.5013 58.7941 63.3322 60.9632C61.1631 63.1323 61.1631 66.5572 63.3322 68.7263L69.3829 74.777C64.4739 76.7178 58.6515 75.6903 54.6558 71.6946C50.6601 67.6989 49.6326 61.8765 51.5734 56.9675L40.9562 46.3503L48.6051 38.7013L59.2223 49.3185C64.1314 47.3778 69.9537 48.4052 73.9494 52.401C78.0593 56.2825 79.0868 62.1049 77.146 67.0139Z" fill="#60B257"/>
<path d="M2.93971 78.2019L1.79808 77.0603C-0.599359 74.6629 -0.599359 70.8955 1.79808 68.498L20.2926 50.1177L29.8823 59.7074L11.502 78.2019C9.10454 80.5994 5.33715 80.5994 2.93971 78.2019Z" fill="#57C1D6"/>
<path fill-rule="evenodd" clip-rule="evenodd" d="M23.4333 28.566C23.5801 28.8602 23.8627 29.1427 24.06 29.34L33.7639 39.044L41.4129 31.395L31.8231 21.6911C31.6519 21.5769 31.5092 21.4628 31.3665 21.3486C31.2238 21.2344 31.0811 21.1203 30.9098 21.0061C32.9648 15.9829 31.9373 10.0464 27.9416 6.05069C24.4358 2.54486 19.5238 1.32406 15.0563 2.38827C14.432 2.53698 13.8164 2.73032 13.2145 2.96827L19.151 8.90477C21.3201 11.0739 21.3201 14.4988 19.151 16.6679C16.9819 18.837 13.557 18.837 11.3879 16.6679L5.45136 10.7314C5.21341 11.3333 5.02008 11.9489 4.87137 12.5732C3.80715 17.0407 5.02796 21.9527 8.53378 25.4585C12.0989 29.0236 17.2089 30.2257 21.7557 28.9839C22.305 28.8339 22.846 28.6482 23.375 28.4267C23.3905 28.4733 23.4103 28.5198 23.4333 28.566ZM6.33394 14.0357C5.81491 17.6431 6.95078 21.4537 9.74467 24.2476C13.2403 27.7432 18.4344 28.6385 22.7138 26.8471L24.4161 26.1345L24.9742 27.809C24.9811 27.8182 24.9897 27.8291 25.0001 27.8418C25.0665 27.9229 25.15 28.0082 25.2709 28.1292L33.7639 36.6222L38.9982 31.3878L30.717 23.0081C30.5531 22.891 30.4156 22.7809 30.3101 22.6965L30.2967 22.6858C30.1495 22.5681 30.061 22.4983 29.9599 22.431L28.7946 21.654L29.3249 20.3577C31.1286 15.9486 30.2202 10.7511 26.7307 7.26157C23.9368 4.46768 20.1262 3.33182 16.5188 3.85085L20.3619 7.69389C23.1997 10.5317 23.1997 15.0409 20.3619 17.8788C17.524 20.7166 13.0148 20.7166 10.177 17.8788L6.33394 14.0357Z" fill="#595959"/>
<path fill-rule="evenodd" clip-rule="evenodd" d="M51.5734 56.9675C49.6326 61.8765 50.6601 67.6989 54.6558 71.6946C58.1616 75.2004 63.0736 76.4212 67.5411 75.357C68.1654 75.2083 68.781 75.015 69.3829 74.777L63.3322 68.7263C61.1631 66.5572 61.1631 63.1323 63.3322 60.9632C65.5013 58.7941 68.9262 58.7941 71.0954 60.9632L77.146 67.0139C77.384 66.4119 77.5774 65.7962 77.7259 65.172C78.7885 60.7061 77.5553 55.8065 73.9494 52.401C69.9537 48.4052 64.1314 47.3778 59.2223 49.3185L48.6051 38.7013L40.9562 46.3503L51.5734 56.9675ZM43.378 46.3503L53.5792 56.5516L53.1659 57.5971C51.4689 61.8894 52.3671 66.9842 55.8667 70.4837C58.6606 73.2776 62.4712 74.4135 66.0785 73.8944L62.1213 69.9372C59.2835 67.0994 59.2835 62.5902 62.1213 59.7523C64.9592 56.9145 69.4684 56.9145 72.3062 59.7523L76.263 63.7091C76.7774 60.111 75.6241 56.3381 72.7736 53.6459L72.7558 53.6291L72.7386 53.6118C69.239 50.1123 64.1443 49.2141 59.8519 50.911L58.8064 51.3244L48.6051 41.1231L43.378 46.3503Z" fill="#595959"/>
<path fill-rule="evenodd" clip-rule="evenodd" d="M3.00896 75.8494L4.1506 76.991C5.87867 78.7191 8.56052 78.7197 10.2893 76.9929C10.2899 76.9923 10.2905 76.9916 10.2911 76.991L27.4643 59.7112L20.2888 52.5357L3.00896 69.7089C3.00839 69.7095 3.00782 69.7101 3.00725 69.7106C1.28028 71.4394 1.28086 74.1213 3.00896 75.8494ZM1.79808 68.498C-0.599359 70.8955 -0.599359 74.6629 1.79808 77.0603L2.93971 78.2019C5.33715 80.5994 9.10454 80.5994 11.502 78.2019L29.8823 59.7074L20.2926 50.1177L1.79808 68.498Z" fill="#595959"/>
<path fill-rule="evenodd" clip-rule="evenodd" d="M70.0679 17.9237L68.6979 16.5537L32.0514 53.0861L27.0282 48.0629L34.9055 40.1856L63.5603 11.4166L62.1906 10.0464L75.5477 0L80.1143 4.56654L70.0679 17.9237ZM69.8845 15.3185L77.8517 4.72578L75.3885 2.26253L64.7957 10.2297L65.9799 11.4139L36.1164 41.3965L29.45 48.0629L32.0533 50.6662L68.6998 14.1338L69.8845 15.3185Z" fill="#595959"/>
<path d="M32.8387 57.8661L32.8063 57.892L32.7769 57.9214L32.5486 58.1497C32.3902 58.3081 32.2336 58.3582 32.1085 58.3582C31.9834 58.3582 31.8268 58.3081 31.6684 58.1497L31.1381 58.6801L31.6684 58.1497L31.5543 58.0356L21.9645 48.4458L21.4342 48.9762L21.9645 48.4458C21.8062 48.2875 21.7561 48.1309 21.7561 48.0058C21.7561 47.8807 21.8062 47.7241 21.9645 47.5657L21.9645 47.5657L22.1929 47.3374C22.1929 47.3374 22.1929 47.3374 22.1929 47.3374C22.3512 47.179 22.5078 47.1289 22.6329 47.1289C22.758 47.1289 22.9146 47.179 23.073 47.3374L25.4704 49.7348L30.6078 54.8722L32.9906 57.2549C32.9933 57.2611 32.9975 57.2719 33.0021 57.2883C33.0154 57.3358 33.0238 57.4057 33.0167 57.4877C33.0018 57.6589 32.9303 57.7928 32.8387 57.8661Z" stroke="#595959" stroke-width="1.5"/>
</svg>
