<svg width="80" height="80" viewBox="0 0 80 80" fill="none" xmlns="http://www.w3.org/2000/svg">
<path d="M80 73.4102C80 61.6953 68.1634 52.1984 53.5624 52.1984C38.9613 52.1984 27.1247 61.6953 27.1247 73.4102C27.1247 77.8033 40.3435 79.9998 53.5624 79.9998C66.7812 79.9998 80 77.8033 80 73.4102Z" fill="#60B257"/>
<path d="M24.9327 58.6804C26.6541 58.6804 28.3742 58.6394 30.0627 58.5604C34.6595 53.8161 40.6543 50.668 47.1696 49.5771C44.0067 48.3787 41.2424 46.3187 39.1896 43.6305C37.1369 40.9422 35.8777 37.733 35.5546 34.3662C32.158 33.095 28.5593 32.4497 24.9327 32.4614C11.1628 32.4614 0 41.4178 0 52.4658C0 56.6088 12.4664 58.6804 24.9327 58.6804Z" fill="#57C1D6"/>
<path fill-rule="evenodd" clip-rule="evenodd" d="M24.9327 32.4613C28.5593 32.4496 32.158 33.095 35.5546 34.3661C35.8777 37.733 37.1369 40.9422 39.1896 43.6304C40.6462 45.538 42.4611 47.1292 44.5225 48.3207C45.3661 48.8083 46.251 49.229 47.1696 49.577C46.1941 49.7404 45.2303 49.9498 44.2811 50.2038C38.8906 51.6464 33.9712 54.5264 30.0627 58.5603C28.3742 58.6393 26.6541 58.6803 24.9327 58.6803C12.4664 58.6803 0 56.6087 0 52.4657C0 41.4178 11.1628 32.4613 24.9327 32.4613ZM29.2953 56.8274C27.8548 56.8856 26.3941 56.9156 24.9327 56.9156C18.7745 56.9156 12.6796 56.4022 8.17321 55.4037C5.90471 54.9011 4.15533 54.3002 3.01622 53.6513C1.79898 52.9578 1.76471 52.5095 1.76471 52.4657C1.76471 42.7353 11.7548 34.226 24.9327 34.2261L24.9384 34.226C27.9993 34.2162 31.0391 34.7036 33.9395 35.667C34.4455 38.9468 35.7657 42.0543 37.7871 44.7014C39.0488 46.3537 40.5553 47.7897 42.2466 48.9644C37.3913 50.5294 32.9503 53.2155 29.2953 56.8274ZM14.7213 7.22279C13.3719 9.2424 12.6516 11.6168 12.6516 14.0458C12.6516 15.6586 12.9692 17.2556 13.5864 18.7456C14.2036 20.2356 15.1082 21.5895 16.2486 22.7299C17.389 23.8703 18.7429 24.7749 20.2329 25.3921C21.7229 26.0093 23.3199 26.3269 24.9327 26.3269C27.3617 26.3269 29.7361 25.6067 31.7557 24.2572C33.7753 22.9077 35.3494 20.9897 36.279 18.7456C37.2085 16.5015 37.4517 14.0322 36.9778 11.6499C36.504 9.2676 35.3343 7.07931 33.6168 5.36177C31.8992 3.64423 29.7109 2.47456 27.3286 2.00069C24.9463 1.52682 22.477 1.77003 20.2329 2.69955C17.9889 3.62908 16.0708 5.20317 14.7213 7.22279ZM13.254 6.24237C11.7107 8.55219 10.8869 11.2678 10.8869 14.0458C10.8869 15.8903 11.2502 17.7168 11.956 19.4209C12.6619 21.125 13.6965 22.6734 15.0008 23.9777C16.3051 25.282 17.8535 26.3166 19.5576 27.0225C21.2617 27.7283 23.0882 28.0916 24.9327 28.0916C27.7107 28.0916 30.4263 27.2679 32.7361 25.7245C35.046 24.1811 36.8463 21.9875 37.9093 19.4209C38.9724 16.8544 39.2506 14.0302 38.7086 11.3056C38.1667 8.581 36.8289 6.07828 34.8646 4.11393C32.9003 2.14959 30.3975 0.811857 27.6729 0.269895C24.9483 -0.272068 22.1241 0.00608332 19.5576 1.06917C16.9911 2.13227 14.7974 3.93255 13.254 6.24237Z" fill="#595959"/>
<path fill-rule="evenodd" clip-rule="evenodd" d="M78.2353 73.4103C78.2353 63.0129 67.5714 53.9632 53.5624 53.9632C39.5533 53.9632 28.8894 63.0129 28.8894 73.4103C28.8894 73.5166 28.9707 74.0196 30.2702 74.76C31.4916 75.4558 33.3586 76.0958 35.7682 76.6296C40.5567 77.6906 47.0279 78.2352 53.5624 78.2352C60.0968 78.2352 66.568 77.6906 71.3565 76.6296C73.7661 76.0958 75.6331 75.4558 76.8545 74.76C78.154 74.0196 78.2353 73.5166 78.2353 73.4103ZM53.5624 45.8003C56.159 45.8002 58.6973 45.0302 60.8564 43.5876C63.0154 42.145 64.6982 40.0945 65.6918 37.6955C66.6855 35.2965 66.9455 32.6567 66.4389 30.11C65.9323 27.5632 64.6819 25.2239 62.8458 23.3878C61.0097 21.5517 58.6704 20.3013 56.1236 19.7947C53.5768 19.2881 50.9371 19.5481 48.5381 20.5418C46.1391 21.5355 44.0886 23.2183 42.646 25.3773C41.2034 27.5364 40.4334 30.0747 40.4334 32.6714C40.4334 34.3955 40.773 36.1027 41.4328 37.6956C42.0926 39.2885 43.0597 40.7358 44.2788 41.9549C45.4979 43.174 46.9453 44.1411 48.5381 44.8009C50.131 45.4607 51.8383 45.8003 53.5624 45.8003ZM53.5624 52.1985C68.1634 52.1985 80 61.6954 80 73.4103C80 77.8034 66.7812 80 53.5624 80C40.3435 80 27.1247 77.8034 27.1247 73.4103C27.1247 61.6954 38.9613 52.1985 53.5624 52.1985ZM61.8368 45.0549C59.3876 46.6914 56.5081 47.5649 53.5624 47.565C51.6065 47.565 49.6698 47.1797 47.8628 46.4313C46.0558 45.6828 44.414 44.5857 43.031 43.2027C41.648 41.8197 40.5509 40.1779 39.8024 38.3709C39.0539 36.5639 38.6687 34.6272 38.6687 32.6714C38.6687 29.7257 39.5422 26.8462 41.1787 24.3969C42.8152 21.9477 45.1413 20.0387 47.8627 18.9115C50.5842 17.7842 53.5788 17.4893 56.4679 18.0639C59.3569 18.6386 62.0107 20.0571 64.0936 22.14C66.1766 24.2229 67.595 26.8766 68.1697 29.7657C68.7444 32.6548 68.4495 35.6494 67.3222 38.3708C66.195 41.0923 64.286 43.4184 61.8368 45.0549Z" fill="#595959"/>
</svg>
