<?xml version="1.0" encoding="utf-8"?>
<!-- Generator: Adobe Illustrator 19.0.0, SVG Export Plug-In . SVG Version: 6.00 Build 0)  -->
<svg version="1.1" id="Слой_1" xmlns="http://www.w3.org/2000/svg" xmlns:xlink="http://www.w3.org/1999/xlink" x="0px" y="0px"
	 viewBox="0 0 256.9 38.6" style="enable-background:new 0 0 256.9 38.6;" xml:space="preserve">
<style type="text/css">
	.st0{fill:#60BED4;}
</style>
<g>
	<path class="st0" d="M157.2,29.6h-16.8v-28h-7.2v34.5h24V29.6z M216.3,7.7v0.6H227v27.8h7.2V8.3h10.7V7.7V1.6h-28.6V7.7z
		 M254.7,7.7c-0.7,0.7-1.7,1.2-2.7,1.2c-1.1,0-2-0.4-2.7-1.2c-0.7-0.7-1.1-1.7-1.1-2.8s0.4-2.1,1.1-2.8C250,1.5,250.9,1,252,1
		c1.1,0,2,0.4,2.7,1.2c0.7,0.7,1.1,1.7,1.1,2.8S255.4,7,254.7,7.7 M255.5,1.5C254.6,0.6,253.4,0,252,0c-1.3,0-2.6,0.6-3.5,1.5
		c-0.9,0.9-1.4,2.1-1.4,3.5c0,1.4,0.5,2.6,1.4,3.5c0.9,0.9,2.1,1.5,3.5,1.5c1.3,0,2.6-0.6,3.5-1.5c0.9-0.9,1.4-2.1,1.4-3.5
		C256.9,3.6,256.3,2.4,255.5,1.5 M252.8,4.6c-0.2,0.2-0.5,0.3-0.8,0.3h-1V3.2h1c0.4,0,0.8,0.1,0.9,0.4C253,3.8,253,3.9,253,4
		C253,4.2,252.9,4.4,252.8,4.6 M253.7,5.2c0.3-0.3,0.5-0.7,0.5-1.2c0-0.3-0.1-0.5-0.2-0.8c-0.4-0.7-1.2-1-2-1h-2.1v5.3h1.1V5.8h1.1
		l1.2,1.8h1.3l-1.4-2C253.4,5.5,253.6,5.3,253.7,5.2 M196.8,36.1h7.2V8.3h10.7V7.7V1.6h-28.6v6.1v0.6h10.7V36.1z M9.2,10.6
		c0-4.3,6-3.5,8.6-2.9c2,0.5,4.6,1.3,6.3,2.5l0.1,0.1l3.3-5.4l-0.1-0.1c-2.7-2.2-6.3-3.4-9.7-3.9c-4.7-0.7-11.1,0-14.3,4
		c-1.3,1.6-1.9,3.6-1.9,5.7c0,12.7,18.9,9.8,18.9,15.3c0,1.1-0.3,2.1-1,2.9c-2.1,2.4-6.7,1.9-9.4,1.1c-2.1-0.6-4.6-1.6-6.3-3.1
		l-0.1-0.1L0,32.3l0.1,0.1C6,37.5,16.3,39,23,34.7c3.1-2,5.1-5.1,5.1-8.8C28.1,13.7,9.2,16.9,9.2,10.6 M159.9,36.1h25v-6.5h-17.8V22
		h8.9v-6.8h-8.9V8.2h17.4V1.6h-24.6v13.7h-8.4V22h8.4V36.1z M57.1,27.8c-2.5,1.7-5.1,2.8-8.2,2.8c-6.9,0-11.7-4.6-11.7-11.7
		S42,7.1,48.9,7.1c2.8,0,5.6,1.1,7.9,2.5l0,0l3.2-5.5l0,0c-3.3-2.4-7.6-3.6-11.6-3.6c-10.6,0-18.7,7.2-18.7,18.3s8,18.3,18.7,18.3
		c4.1,0,8.6-1.3,11.9-4l0.2-0.2L57.1,27.8L57.1,27.8z M73.7,22.9l5.5-13.5l5.5,13.5H73.7z M89.9,36.1h7.7L83.5,1.6h-8.7L60.8,36.1
		h7.7l2.6-6.7h16.2L89.9,36.1z M118.5,16.5c-1.4,1.2-3.2,1.7-5,1.7h-6.6V7.8h6.6c2.3,0,5,0.6,6.1,2.8c0.4,0.7,0.5,1.5,0.5,2.4
		C120.2,14.4,119.5,15.6,118.5,16.5 M121.4,22.9c1.1-0.5,2.1-1.2,3-2.1c2.2-2.1,3.2-4.7,3.2-7.8c0-1.8-0.4-3.5-1.2-5.1
		c-2.5-4.8-8-6.3-12.9-6.3H99.7v34.5h7.2V24.6h7.2l8,11.5h8.4L121.4,22.9z"/>
</g>
</svg>
