<svg width="25" height="42" viewBox="0 0 25 42" fill="none" xmlns="http://www.w3.org/2000/svg">
<g clip-path="url(#clip0)">
<path d="M23.4632 31.3711C23.6681 31.1647 23.7706 30.8551 23.873 30.5455L25.0001 25.0762C25.1025 24.3539 25.0001 23.6315 24.4878 23.1155L21.5165 19.6069V19.4005C21.8238 16.3047 21.5165 13.1057 20.6968 10.629C19.1599 5.67572 15.8812 2.16712 14.0369 0.516015C13.6271 0.103239 13.0124 -0.103149 12.5001 -0.103149C11.9878 -0.103149 11.373 0.103239 10.9632 0.516015C9.11891 2.16712 5.84022 5.67572 4.30334 10.629C3.48367 13.1057 3.17629 16.4079 3.48367 19.4005V19.5037L0.512354 22.9091C5.92656e-05 23.4251 -0.1024 24.1475 5.9288e-05 24.8698L1.12711 30.3391C1.22957 30.8551 1.6394 31.2679 2.04924 31.4743C2.56154 31.6806 3.07383 31.5774 3.48367 31.2679L6.6599 28.8944L6.76235 28.9976C6.76235 29.1008 6.86481 29.1008 6.86481 29.204C7.27465 29.8231 7.99186 30.1327 8.70908 30.1327H16.1886C16.8033 30.1327 17.4181 29.9263 17.8279 29.5136C17.9304 29.4104 18.0328 29.3072 18.0328 29.204L18.2378 28.8944L18.3402 28.9976L21.414 31.2679C21.8238 31.5774 22.3361 31.6806 22.8484 31.4743C23.0533 31.5774 23.2583 31.4743 23.4632 31.3711ZM5.84022 27.8625L2.66399 30.1327L1.6394 24.7666C1.6394 24.5602 1.6394 24.3539 1.74186 24.1475L3.79104 21.774V21.9804C4.20088 24.0443 4.91809 26.005 5.84022 27.7593V27.8625ZM18.1353 26.1082C17.7255 26.9337 17.2132 27.7593 16.7009 28.4816C16.5984 28.688 16.3935 28.7912 16.1886 28.7912H8.81154C8.60662 28.7912 8.4017 28.688 8.29924 28.4816C7.78695 27.7593 7.27465 26.9337 6.86481 26.1082L6.76235 26.005H18.2378L18.1353 26.1082ZM18.8525 24.3539H6.1476V24.2507C5.63531 22.7028 5.32793 21.0516 5.12301 19.2973C4.81563 16.4079 5.12301 13.4153 5.84022 11.145C7.27465 6.60447 10.3484 3.30226 12.0902 1.75434C12.3976 1.54796 12.705 1.54796 13.0124 1.75434C14.7542 3.30226 17.8279 6.60447 19.2624 11.145C19.9796 13.4153 20.2869 16.4079 19.9796 19.2973C19.7747 21.0516 19.4673 22.7028 18.8525 24.3539ZM22.3361 30.1327L22.2337 30.0295L19.1599 27.7593V27.6561C20.082 25.9018 20.7992 24.0443 21.2091 21.8772V21.6708L23.2583 24.0443C23.3607 24.2507 23.4632 24.4571 23.3607 24.6634L22.3361 30.1327Z" fill="#00C4D9"/>
<path d="M15.5737 9.49387C14.7541 8.66831 13.627 8.15234 12.5 8.15234C11.3729 8.15234 10.2459 8.56512 9.42621 9.49387C8.60653 10.3194 8.09424 11.4546 8.09424 12.5897C8.09424 13.7248 8.50407 14.86 9.42621 15.6855C10.2459 16.5111 11.3729 17.027 12.5 17.027C13.627 17.027 14.7541 16.6143 15.5737 15.6855C16.3934 14.86 16.9057 13.7248 16.9057 12.5897C16.9057 11.4546 16.3934 10.3194 15.5737 9.49387ZM12.5 15.3759C11.7828 15.3759 11.0656 15.0663 10.5533 14.5504C10.041 14.0344 9.73358 13.312 9.73358 12.5897C9.73358 11.8673 10.041 11.145 10.5533 10.629C11.0656 10.113 11.7828 9.80345 12.5 9.80345C13.2172 9.80345 13.9344 10.113 14.4467 10.629C14.959 11.145 15.2664 11.8673 15.2664 12.5897C15.2664 14.1376 14.0369 15.3759 12.5 15.3759Z" fill="#00C4D9"/>
<path d="M9.52875 33.2285C9.52875 32.8157 9.22137 32.403 8.70908 32.403C8.19678 32.403 7.8894 32.7125 7.8894 33.2285V37.3563C7.8894 37.769 8.19678 38.1818 8.70908 38.1818C8.91399 38.1818 9.11891 38.0786 9.22137 37.9754C9.32383 37.8722 9.42629 37.6659 9.42629 37.4595V33.2285H9.52875Z" fill="#00C4D9"/>
<path d="M11.6804 33.2286V41.2777C11.6804 41.6905 11.9878 42.1033 12.5001 42.1033C12.705 42.1033 12.9099 42.0001 13.0124 41.8969C13.1148 41.7937 13.2173 41.5873 13.2173 41.3809V33.3318C13.2173 32.919 12.9099 32.5062 12.3976 32.5062C11.8853 32.5062 11.6804 32.7126 11.6804 33.2286Z" fill="#00C4D9"/>
<path d="M16.2911 32.403C15.8813 32.403 15.4714 32.7125 15.4714 33.2285V37.3563C15.4714 37.769 15.7788 38.1818 16.2911 38.1818C16.496 38.1818 16.7009 38.0786 16.8034 37.9754C16.9059 37.8722 17.0083 37.6659 17.0083 37.4595V33.3317C17.1108 32.7125 16.7009 32.403 16.2911 32.403Z" fill="#00C4D9"/>
</g>
<defs>
<clipPath id="clip0">
<rect width="25" height="42" fill="white"/>
</clipPath>
</defs>
</svg>
