<svg width="44" height="20" viewBox="0 0 44 20" fill="none" xmlns="http://www.w3.org/2000/svg">
<path d="M33.8919 0C33.6541 0 33.2973 0.238095 33.2973 0.595238C33.2973 0.952381 33.5351 1.19048 33.8919 1.19048C38.6486 1.19048 42.573 5.11905 42.573 9.88095C42.573 14.6429 38.6486 18.5714 33.8919 18.5714H9.98919C5.23243 18.5714 1.30811 14.6429 1.30811 9.88095C1.30811 5.11905 5.23243 1.19048 9.98919 1.19048H30.9189C31.2757 1.19048 31.5135 0.952381 31.5135 0.595238C31.5135 0.238095 31.2757 0 30.9189 0H9.98919C4.51892 0 0 4.52381 0 10C0 15.4762 4.51892 20 9.98919 20H33.8919C39.3622 20 43.8811 15.4762 43.8811 10C43.8811 4.52381 39.4811 0 33.8919 0Z" fill="#00C4D9"/>
<path d="M12.9622 17.5H33.8919C37.9351 17.5 41.2649 14.1666 41.2649 10.119C41.2649 6.0714 38.0541 2.61902 33.8919 2.61902H9.98918C5.94594 2.61902 2.61621 5.95235 2.61621 9.99997C2.61621 14.0476 5.94594 17.3809 9.98918 17.3809C10.3459 17.3809 10.5838 17.1428 10.5838 16.7857C10.5838 16.4285 10.3459 16.1904 9.98918 16.1904C6.65945 16.1904 3.8054 13.4524 3.8054 9.99997C3.8054 6.54759 6.54054 3.80949 9.98918 3.80949H33.8919C37.2216 3.80949 40.0757 6.54759 40.0757 9.99997C40.0757 13.4524 37.3405 16.1904 33.8919 16.1904H12.9622C12.6054 16.1904 12.3676 16.4285 12.3676 16.7857C12.3676 17.1428 12.6054 17.5 12.9622 17.5Z" fill="#00C4D9"/>
<path d="M19.9784 13.2143L20.3352 12.1429H22.9514L23.3081 13.2143C23.4271 13.5714 23.7838 13.6905 24.1406 13.5714C24.4973 13.4524 24.6163 13.0952 24.4973 12.7381L22.3568 7.02382C22.119 6.42858 21.1676 6.42858 20.9298 7.02382L18.7892 12.7381C18.6703 13.0952 18.7892 13.4524 19.146 13.5714C19.5027 13.6905 19.8595 13.4524 19.9784 13.2143ZM21.7622 8.69049L22.5946 10.8333H20.9298L21.7622 8.69049Z" fill="#00C4D9"/>
<path d="M10.7028 12.2619C10.1082 12.2619 9.51356 12.0238 9.15681 11.5477C8.91897 11.4286 8.56221 11.3096 8.32437 11.5477C8.08654 11.7858 8.08654 12.1429 8.32437 12.5C8.91897 13.2143 9.87032 13.5715 10.8217 13.5715C12.0109 13.5715 12.9622 12.8572 13.2001 11.7858C13.319 10.9524 12.9622 10 11.5352 9.4048C10.7028 9.16671 10.1082 8.92861 9.87032 8.80956C9.7514 8.69052 9.63248 8.57147 9.7514 8.33337C9.7514 8.21433 9.87032 7.97623 10.2271 7.73813C11.0595 7.50004 11.8919 8.21433 11.8919 8.21433C12.1298 8.45242 12.6055 8.45242 12.8433 8.09528C13.0811 7.85718 12.9622 7.38099 12.7244 7.1429C12.7244 7.1429 11.4163 6.07147 9.87032 6.54766C9.03789 6.78575 8.56221 7.38099 8.44329 8.09528C8.32437 8.80956 8.56221 9.52385 9.15681 9.88099C9.15681 9.88099 9.15681 9.88099 9.27573 9.88099C9.27573 9.88099 10.1082 10.2381 11.0595 10.5953C11.2973 10.7143 11.8919 11.0715 11.8919 11.5477C11.773 11.9048 11.4163 12.2619 10.7028 12.2619Z" fill="#00C4D9"/>
<path d="M16.4108 13.5714C16.7676 13.5714 17.0054 13.3333 17.0054 12.9762V7.73808H17.9568C18.3135 7.73808 18.5514 7.49999 18.5514 7.14285C18.5514 6.7857 18.3135 6.54761 17.9568 6.54761H14.746C14.3892 6.54761 14.1514 6.7857 14.1514 7.14285C14.1514 7.49999 14.3892 7.73808 14.746 7.73808H15.6973V12.9762C15.6973 13.3333 16.0541 13.5714 16.4108 13.5714Z" fill="#00C4D9"/>
<path d="M30.4432 8.57145C30.4432 7.38097 29.4919 6.42859 28.1838 6.42859H26.6378C26.2811 6.42859 26.0432 6.66668 26.0432 7.02383V12.8572C26.0432 13.2143 26.2811 13.4524 26.6378 13.4524C26.9946 13.4524 27.2324 13.2143 27.2324 12.8572V11.0714L29.254 13.3334C29.4919 13.5714 29.8486 13.5714 30.2054 13.3334C30.4432 13.0953 30.4432 12.7381 30.2054 12.381L28.7783 10.7143C29.7297 10.4762 30.4432 9.64287 30.4432 8.57145ZM28.1838 9.52383C27.9459 9.52383 27.5892 9.52383 27.2324 9.52383V7.73811H28.1838C28.6594 7.73811 29.1351 8.09526 29.1351 8.57145C29.1351 9.04764 28.7783 9.52383 28.1838 9.52383Z" fill="#00C4D9"/>
<path d="M33.654 13.5714C34.0107 13.5714 34.2486 13.3333 34.2486 12.9762V7.73808H35.1999C35.5567 7.73808 35.7945 7.49999 35.7945 7.14285C35.7945 6.7857 35.5567 6.54761 35.1999 6.54761H31.9891C31.6324 6.54761 31.3945 6.7857 31.3945 7.14285C31.3945 7.49999 31.6324 7.73808 31.9891 7.73808H32.9405V12.9762C32.9405 13.3333 33.2972 13.5714 33.654 13.5714Z" fill="#00C4D9"/>
</svg>
