<svg width="32" height="37" viewBox="0 0 32 37" fill="none" xmlns="http://www.w3.org/2000/svg">
<path d="M29.1824 33.0745H2.8176C2.51571 33.0745 2.31445 32.8732 2.31445 32.5713V21.2981C2.31445 20.9961 2.51571 20.7948 2.8176 20.7948C3.11948 20.7948 3.32074 20.9961 3.32074 21.2981V32.068H28.6792V21.2981C28.6792 20.9961 28.8805 20.7948 29.1824 20.7948C29.4843 20.7948 29.6855 20.9961 29.6855 21.2981V32.5713C29.6855 32.8732 29.4843 33.0745 29.1824 33.0745Z" fill="#00C4D9"/>
<path d="M17.6101 14.2524C17.3082 14.2524 17.107 14.0511 17.107 13.7491V7.20661H14.8931V13.7491C14.8931 14.0511 14.6919 14.2524 14.39 14.2524C14.0881 14.2524 13.8868 14.0511 13.8868 13.7491V7.20661C13.8868 6.70334 14.2894 6.20007 14.8931 6.20007H17.2076C17.7107 6.20007 18.2139 6.60269 18.2139 7.20661V13.7491C18.1133 14.0511 17.912 14.2524 17.6101 14.2524Z" fill="#00C4D9"/>
<path d="M16 5.79745C14.9937 5.79745 14.088 4.99222 14.088 3.88504C14.088 3.07981 15.1949 0.966081 15.4968 0.261506C15.6981 -0.0404551 16 -0.0404551 16.2012 0.0601985C16.3019 0.0601985 16.3018 0.160852 16.4025 0.261506C16.7044 0.865427 17.8113 3.07981 17.8113 3.88504C17.9119 4.99222 17.0063 5.79745 16 5.79745ZM16 1.67066C15.5974 2.37523 15.2956 3.07981 15.0943 3.88504C15.0943 4.3883 15.4968 4.79092 16 4.79092C16.5031 4.79092 16.9056 4.3883 16.9056 3.88504C16.7044 3.18046 16.4025 2.37523 16 1.67066Z" fill="#00C4D9"/>
<path d="M16 7.20658C15.6981 7.20658 15.4968 7.00527 15.4968 6.70331V5.29416C15.4968 4.9922 15.6981 4.79089 16 4.79089C16.3019 4.79089 16.5031 4.9922 16.5031 5.29416V6.70331C16.5031 7.00527 16.3019 7.20658 16 7.20658Z" fill="#00C4D9"/>
<path d="M21.0314 21.8014C20.0251 21.8014 19.0188 21.3988 18.2138 20.7949C17.0062 19.6877 15.0943 19.6877 13.7861 20.7949C12.1761 22.204 9.76096 22.204 8.15089 20.7949C6.94335 19.6877 5.0314 19.6877 3.72322 20.7949C3.3207 21.1975 2.71693 21.4994 2.21379 21.7008C1.81127 21.8014 1.30813 21.8014 1.00624 21.4994C0.603724 21.1975 0.402466 20.7949 0.402466 20.3923V16.1648C0.402466 14.5543 1.71064 13.3465 3.3207 13.2458H28.6792C30.2893 13.2458 31.5974 14.5543 31.5974 16.1648V20.3923C31.5974 20.7949 31.3962 21.2981 30.9937 21.4994C30.5911 21.8014 30.1886 21.8014 29.7861 21.7008C29.1823 21.4994 28.6792 21.1975 28.2767 20.7949C27.0691 19.6877 25.1572 19.6877 23.849 20.7949C23.044 21.3988 22.0377 21.8014 21.0314 21.8014ZM16 18.8825C17.0062 18.8825 18.0125 19.2851 18.8176 19.889C20.0251 20.9962 21.9371 20.9962 23.2452 19.889C24.8553 18.4798 27.2704 18.4798 28.8805 19.889C29.283 20.1909 29.6855 20.3923 30.088 20.5936C30.1886 20.5936 30.2893 20.5936 30.3899 20.4929C30.4905 20.3923 30.4905 20.2916 30.4905 20.1909V16.1648C30.4905 15.1583 29.6855 14.353 28.6792 14.353H3.3207C2.31442 14.353 1.50938 15.1583 1.50938 16.1648V20.3923C1.50938 20.4929 1.61001 20.5936 1.61001 20.6942C1.71064 20.7949 1.81127 20.7949 1.9119 20.7949C2.31442 20.5936 2.71693 20.3923 3.11945 20.0903C3.92448 19.3857 4.93077 19.0838 5.93706 19.0838C6.94335 19.0838 7.94964 19.4864 8.75467 20.0903C9.96222 21.1975 11.8742 21.1975 13.1823 20.0903C13.9874 19.2851 14.9937 18.8825 16 18.8825Z" fill="#00C4D9"/>
<path d="M29.1824 28.1426C28.0755 28.1426 27.0692 27.8406 26.2642 27.136C24.956 26.0288 22.9434 26.0288 21.6352 27.136C19.9246 28.5452 17.5095 28.5452 15.7988 27.136C14.4906 26.0288 12.478 26.0288 11.1698 27.136C10.3648 27.8406 9.25789 28.1426 8.2516 28.1426C7.14468 28.1426 6.13839 27.8406 5.33336 27.136C4.72958 26.5321 3.82392 26.2301 3.01889 26.3308C2.717 26.3308 2.51575 26.1295 2.51575 25.8275C2.51575 25.5256 2.717 25.3243 3.01889 25.3243C4.12581 25.3243 5.1321 25.6262 5.93713 26.3308C7.24531 27.438 9.25789 27.438 10.5661 26.3308C12.2768 24.9216 14.6918 24.9216 16.4025 26.3308C17.7107 27.438 19.7233 27.438 21.0315 26.3308C22.7422 24.9216 25.1573 24.9216 26.868 26.3308C27.4717 26.9347 28.3774 27.2367 29.1824 27.136C29.4843 27.136 29.6856 27.3373 29.6856 27.6393C29.6856 27.9412 29.4843 28.1426 29.1824 28.1426Z" fill="#00C4D9"/>
<path d="M31.4969 36.2956H0.503145C0.201258 36.2956 0 36.0943 0 35.7923V33.6786C0 32.7727 0.704403 32.0681 1.61006 32.0681H30.3899C31.2956 32.0681 32 32.7727 32 33.6786V35.7923C32 36.0943 31.6981 36.2956 31.4969 36.2956ZM1.00629 35.289H30.8931V33.6786C30.8931 33.3766 30.6918 33.1753 30.3899 33.1753H1.61006C1.30818 33.1753 1.10692 33.3766 1.10692 33.6786V35.289H1.00629Z" fill="#00C4D9"/>
</svg>
