<svg width="37" height="36" viewBox="0 0 37 36" fill="none" xmlns="http://www.w3.org/2000/svg">
<path d="M25.9199 36H23.1428V34.8685H25.4056V31.4742H21.4971C21.1885 31.4742 20.9828 31.2685 20.9828 30.96V24.1714H22.1142V30.3428H26.0228C26.3314 30.3428 26.5371 30.5485 26.5371 30.8571V35.3828C26.4342 35.7942 26.2285 36 25.9199 36Z" fill="#00C4D9"/>
<path d="M21.9085 36H10.08C9.77139 36 9.56567 35.7943 9.56567 35.4857V30.96C9.56567 30.6514 9.77139 30.4457 10.08 30.4457H13.9885V24.2743H15.12V31.0629C15.12 31.3714 14.9142 31.5772 14.6057 31.5772H10.6971V34.9714H22.0114V36H21.9085Z" fill="#00C4D9"/>
<path d="M15.2229 15.2229H14.0915V12.96H9.56579C9.36008 12.96 9.15437 12.8572 9.05151 12.6514C8.94865 12.4457 8.94865 12.24 9.05151 12.0343L13.5772 4.73145L14.5029 5.34859L10.4915 11.8286H14.5029C14.8115 11.8286 15.0172 12.0343 15.0172 12.3429V15.2229H15.2229Z" fill="#00C4D9"/>
<path d="M21.9085 15.2229H20.7771V1.13143H17.1771L15.2228 4.21714L14.2971 3.6L16.3543 0.205714C16.4571 0.102857 16.6628 0 16.8685 0H21.3943C21.7028 0 21.9085 0.205714 21.9085 0.514286V15.2229Z" fill="#00C4D9"/>
<path d="M35.6914 25.5085C34.1486 24.6857 32.6057 23.8628 30.96 23.2457L32.2971 19.5428C32.4 19.2342 32.2971 18.9257 31.9886 18.8228C24.7886 16.1485 16.9714 15.6342 9.36 17.1771L9.56571 18.3085C16.7657 16.7657 24.1714 17.2799 31.0629 19.6457L29.52 23.8628C22.0114 21.1885 13.8857 21.1885 6.37714 23.8628L4.83429 19.6457C6.06857 19.2342 7.30286 18.8228 8.53714 18.5142L8.33143 17.4857C6.89143 17.8971 5.34857 18.3085 4.01143 18.8228C3.70286 18.9257 3.6 19.2342 3.70286 19.5428L5.04 23.2457C3.39429 23.8628 1.85143 24.5828 0.308571 25.5085C0.102857 25.6114 0 25.8171 0 26.0228C0 26.2285 0.102857 26.4342 0.308571 26.5371C1.23429 26.9485 2.16 27.3599 3.08571 27.7714C2.88 28.5942 2.67429 29.4171 2.57143 30.2399C2.57143 30.4456 2.67429 30.6514 2.77714 30.7542C2.88 30.8571 2.98286 30.8571 3.08571 30.8571C3.18857 30.8571 3.29143 30.8571 3.39429 30.7542C5.96571 29.3142 8.74286 28.1828 11.7257 27.5656C11.9314 27.5656 12.1371 27.4628 12.3429 27.4628C12.5486 27.4628 12.7543 27.2571 12.7543 26.9485C12.8571 25.7142 13.0629 24.4799 13.2686 23.2457C16.4571 22.7314 19.7486 22.7314 23.04 23.2457C23.2457 24.4799 23.4514 25.7142 23.5543 26.9485C23.5543 27.1542 23.76 27.3599 23.9657 27.4628C24.0686 27.4628 24.0686 27.4628 24.1714 27.4628C25.7143 27.7714 27.1543 28.1828 28.5943 28.7999L29.0057 27.7714C28.08 27.4628 27.0514 27.1542 26.1257 26.8457C27.4629 26.1257 28.8 25.6114 30.24 25.0971C30.3429 24.9942 30.4457 24.8914 30.5486 24.7885L30.7543 24.2742C31.9886 24.7885 33.12 25.3028 34.3543 25.9199C33.6343 26.2285 32.9143 26.6399 32.1943 27.0514C31.9886 27.1542 31.8857 27.4628 31.8857 27.6685C31.9886 28.1828 32.1943 28.7999 32.2971 29.3142C31.5771 29.0057 30.8571 28.5942 30.1371 28.2857L29.7257 29.3142C30.7543 29.7256 31.7829 30.2399 32.8114 30.8571C32.9143 30.8571 33.0171 30.9599 33.12 30.9599C33.2229 30.9599 33.3257 30.9599 33.4286 30.8571C33.6343 30.7542 33.7371 30.5485 33.6343 30.3428C33.5314 29.5199 33.3257 28.6971 33.12 27.8742C33.9429 27.3599 34.8686 26.9485 35.7943 26.5371C36 26.4342 36.1029 26.2285 36.1029 26.0228C36 25.8171 35.8971 25.6114 35.6914 25.5085ZM3.80571 29.3142C3.90857 28.7999 4.11429 28.1828 4.21714 27.6685C4.32 27.4628 4.21714 27.1542 3.90857 27.0514C3.18857 26.6399 2.46857 26.3314 1.74857 25.9199C2.88 25.3028 4.11429 24.7885 5.34857 24.2742L5.55429 24.7885C5.65714 24.8914 5.76 24.9942 5.86286 25.0971C5.86286 25.0971 5.86286 25.0971 5.96571 25.0971C7.40571 25.6114 8.74286 26.2285 10.08 26.8457C7.81714 27.5657 5.76 28.2857 3.80571 29.3142ZM11.6229 26.5371C10.3886 25.8171 9.15429 25.1999 7.81714 24.6857C9.15429 24.2742 10.5943 23.8628 12.0343 23.6571C11.8286 24.5828 11.7257 25.6114 11.6229 26.5371ZM28.2857 24.6857C26.9486 25.1999 25.7143 25.8171 24.48 26.5371C24.3771 25.6114 24.2743 24.5828 24.0686 23.6571C25.5086 23.8628 26.8457 24.2742 28.2857 24.6857Z" fill="#00C4D9"/>
<path d="M4.52576 7.92004C4.32004 7.92004 4.11433 7.81718 4.01147 7.61147L3.08576 5.96576L1.44004 5.04004C1.23433 4.93718 1.13147 4.73147 1.13147 4.52576C1.13147 4.32004 1.23433 4.11433 1.44004 4.01147L3.08576 3.08576L4.01147 1.44004C4.11433 1.23433 4.32004 1.13147 4.52576 1.13147C4.73147 1.13147 4.93718 1.23433 5.04004 1.44004L5.8629 3.08576L7.50861 4.01147C7.71433 4.11433 7.81718 4.32004 7.81718 4.52576C7.81718 4.73147 7.71433 4.93718 7.50861 5.04004L5.8629 5.96576L4.93718 7.61147C4.83433 7.81718 4.73147 7.92004 4.52576 7.92004ZM2.88004 4.52576L3.80576 5.04004C3.90861 5.04004 3.90861 5.1429 4.01147 5.24576L4.52576 6.17147L5.04004 5.24576C5.04004 5.1429 5.1429 5.04004 5.24576 5.04004L6.17147 4.52576L5.24576 4.01147C5.1429 3.90861 5.04004 3.90861 5.04004 3.80576L4.52576 2.88004L4.01147 3.80576C3.90861 3.90861 3.90861 3.90861 3.80576 4.01147L2.88004 4.52576Z" fill="#00C4D9"/>
<path d="M31.4744 16.8685C31.2686 16.8685 31.0629 16.7657 30.9601 16.56L30.0344 14.9142L28.3887 13.9885C28.1829 13.8857 28.0801 13.68 28.0801 13.4742C28.0801 13.2685 28.1829 13.0628 28.3887 12.96L30.0344 12.0342L30.9601 10.3885C31.0629 10.1828 31.2686 10.08 31.4744 10.08C31.6801 10.08 31.8858 10.1828 31.9886 10.3885L32.9144 12.0342L34.5601 12.96C34.7658 13.0628 34.8686 13.2685 34.8686 13.4742C34.8686 13.68 34.7658 13.8857 34.5601 13.9885L32.9144 14.9142L31.9886 16.56C31.8858 16.7657 31.6801 16.8685 31.4744 16.8685ZM29.8286 13.4742L30.7544 13.9885C30.8572 14.0914 30.9601 14.0914 30.9601 14.1942L31.4744 15.12L31.9886 14.1942C32.0915 14.0914 32.0915 13.9885 32.1944 13.9885L33.1201 13.4742L32.1944 12.96C32.0915 12.8571 31.9886 12.8571 31.9886 12.7542L31.4744 11.8285L30.9601 12.7542C30.8572 12.8571 30.8572 12.96 30.7544 12.96L29.8286 13.4742Z" fill="#00C4D9"/>
</svg>
