<svg width="35" height="35" viewBox="0 0 35 35" fill="none" xmlns="http://www.w3.org/2000/svg">
<g clip-path="url(#clip0)">
<path d="M5.6756 3.17224C4.30923 3.17224 3.15308 4.33538 3.15308 5.71001C3.15308 7.19037 4.30923 8.35351 5.7807 8.35351C7.25218 8.35351 8.40833 7.19037 8.40833 5.71001C8.30323 4.33538 7.14707 3.17224 5.6756 3.17224ZM5.6756 7.08463C4.93986 7.08463 4.30923 6.45019 4.30923 5.71001C4.30923 4.96982 4.93986 4.44112 5.6756 4.44112C6.41134 4.44112 7.04197 5.07556 7.04197 5.71001C7.04197 6.45019 6.41134 7.08463 5.6756 7.08463Z" fill="#00C4D9"/>
<path d="M31.5315 35H34.4745C34.7898 35 35.1051 34.6828 35.1051 34.3656V22.3112C35.1051 21.994 34.7898 21.6767 34.4745 21.6767H32.3724V21.571C32.7928 20.3021 33.003 18.9275 33.003 17.4471C33.003 9.7281 26.8018 3.48943 19.1291 3.48943C16.3964 3.48943 13.7688 4.22961 11.5616 5.70997L11.4565 5.81571V5.70997C11.4565 2.53776 8.93394 0 5.78078 0C2.52252 0 0 2.53776 0 5.70997C0 8.45922 1.36637 10.2568 2.73273 12.1601C2.83784 12.3716 4.30931 14.0634 4.30931 14.0634C4.62462 14.3807 4.93994 14.5921 5.36036 14.6979C5.15015 15.6495 5.04505 16.4955 5.04505 17.4471C5.04505 25.1662 11.2462 31.4048 18.9189 31.4048C19.8649 31.4048 20.7057 31.2991 21.5465 31.1934H21.6517V34.3656C21.6517 34.6828 21.967 35 22.2823 35H25.2252C25.5405 35 25.8559 34.6828 25.8559 34.3656C25.8559 34.0483 25.5405 33.7311 25.2252 33.7311H22.9129V22.9456H25.4354V27.281C25.4354 27.4924 25.5405 27.7039 25.7508 27.8097C25.961 27.9154 26.1712 27.9154 26.3814 27.8097L28.1682 26.6465L29.955 27.8097C30.1652 27.9154 30.3754 27.9154 30.5856 27.8097C30.7958 27.7039 30.9009 27.4924 30.9009 27.281V22.9456H31.1111H33.4234V33.7311H31.5315C31.2162 33.7311 30.9009 34.0483 30.9009 34.3656C30.9009 34.6828 31.1111 35 31.5315 35ZM10.9309 8.45922C11.036 8.14199 11.1411 7.93051 11.1411 7.61329C12.2973 6.66163 13.5586 6.02719 15.03 5.49849L15.2402 5.39275L15.1351 5.49849C14.6096 6.13293 14.0841 6.87311 13.6637 7.71903C13.4535 8.14199 13.2432 8.56496 13.033 9.09366C12.1922 8.98792 11.5616 8.77644 10.9309 8.45922ZM10.3003 9.62236C11.036 9.93958 11.7718 10.1511 12.5075 10.3625C11.8769 12.2659 11.5616 14.4864 11.4565 16.7069H6.41141V16.6012C6.41141 15.7553 6.62162 14.9094 6.83183 14.0634C6.93694 13.9577 6.93694 13.9577 7.04204 13.852C7.04204 13.852 8.51351 12.1601 8.61862 11.9486C9.24925 11.3142 9.87988 10.574 10.3003 9.62236ZM5.67568 13.429C5.57057 13.429 5.46547 13.3233 5.25526 13.2175C5.15015 13.1118 3.88889 11.5257 3.67868 11.4199C2.41742 9.62236 1.26126 8.03625 1.26126 5.70997C1.26126 3.27795 3.25826 1.26888 5.67568 1.26888C8.09309 1.26888 10.0901 3.27795 10.0901 5.70997C10.0901 8.03625 8.93393 9.51662 7.56757 11.4199C7.46246 11.6314 6.0961 13.2175 5.99099 13.2175C5.99099 13.429 5.78078 13.429 5.67568 13.429ZM9.45946 25.9063C7.56757 23.6858 6.51652 21.148 6.41141 18.2931V18.1873H11.5616C11.6667 20.4079 11.982 22.6284 12.6126 24.5317C11.4565 24.9547 10.4054 25.3776 9.45946 25.9063ZM15.03 29.6073C13.3483 29.0786 11.7718 28.1269 10.4054 26.858L10.3003 26.7523H10.4054C11.1411 26.435 11.982 26.1178 12.8228 25.9063C13.033 26.3293 13.2432 26.858 13.4535 27.281C14.0841 28.1269 14.6096 28.8671 15.03 29.6073L15.2402 29.713L15.03 29.6073ZM18.3934 30.136C17.027 29.8187 15.7658 28.5499 14.7147 26.6465C14.5045 26.3293 14.3994 26.0121 14.1892 25.5891V25.4834H14.2943C15.5556 25.1662 16.9219 25.0604 18.3934 25.0604H18.4985V30.136H18.3934ZM18.3934 23.7915C16.8168 23.7915 15.2402 24.003 13.8739 24.3202C13.3483 22.5227 12.9279 20.4079 12.9279 18.1873V18.0816H18.4985V23.7915H18.3934ZM18.3934 16.9184H12.8228V16.8127C12.9279 14.6979 13.2432 12.5831 13.7688 10.6798C15.2402 10.997 16.7117 11.2085 18.2883 11.2085V16.9184H18.3934ZM18.3934 9.93958C16.9219 9.93958 15.5556 9.7281 14.2943 9.51662H14.1892V9.41088C14.2943 9.09366 14.5045 8.6707 14.7147 8.35347C15.7658 6.34441 16.9219 5.18127 18.2883 4.86405H18.3934V9.93958ZM23.018 5.49849C24.6997 6.02719 26.2763 6.97885 27.6426 8.24774L27.7477 8.35347H27.6426C26.9069 8.6707 26.0661 8.98792 25.2252 9.1994C25.015 8.77644 24.8048 8.24774 24.5946 7.82477C24.0691 6.97885 23.5435 6.23867 23.018 5.49849L22.8078 5.39275L23.018 5.49849ZM19.6547 4.86405C21.021 5.18127 22.2823 6.45015 23.3333 8.35347C23.5435 8.6707 23.6487 8.98792 23.8589 9.41088V9.51662H23.7538C22.4925 9.83384 21.1261 9.93958 19.6547 9.93958H19.5496V4.86405H19.6547ZM21.7568 29.9245C21.021 30.0302 20.3904 30.136 19.7598 30.2417H19.6547V25.0604H19.7598C20.3904 25.0604 21.1261 25.1662 21.7568 25.1662V29.9245ZM25.2252 18.1873C25.2252 19.3505 25.1201 20.5136 24.9099 21.571H22.3874C22.0721 21.571 21.7568 21.8882 21.7568 22.2054V23.7915H21.6517C21.021 23.6858 20.2853 23.6858 19.6547 23.6858V18.0816L25.2252 18.1873ZM19.6547 16.9184V11.3142C21.2312 11.3142 22.7027 11.1027 24.1742 10.7855C24.6997 12.5831 25.1201 14.6979 25.1201 16.9184V17.0242H19.6547V16.9184ZM29.955 26.2236L28.7988 25.4834C28.5886 25.3776 28.3784 25.3776 28.1682 25.4834L27.012 26.2236V23.0514H30.0601V26.2236H29.955ZM31.6366 18.1873C31.5315 19.3505 31.3213 20.5136 31.006 21.571H26.2763V21.4653C26.4865 20.4079 26.5916 19.2447 26.5916 18.0816L31.6366 18.1873ZM26.5916 16.9184C26.4865 14.5921 26.1712 12.3716 25.5405 10.4683C26.5916 10.1511 27.6426 9.7281 28.4835 9.30514C30.2703 11.4199 31.3213 14.0634 31.5315 16.9184V17.0242H26.5916V16.9184Z" fill="#00C4D9"/>
<path d="M29.0088 34.3655C29.0088 34.0483 28.6935 33.7311 28.3782 33.7311C28.0629 33.7311 27.7476 34.0483 27.7476 34.3655C27.7476 34.6827 28.0629 35 28.3782 35C28.7986 35 29.0088 34.7885 29.0088 34.3655Z" fill="#00C4D9"/>
</g>
<defs>
<clipPath id="clip0">
<rect width="35" height="35" fill="white"/>
</clipPath>
</defs>
</svg>
