<svg width="31" height="36" viewBox="0 0 31 36" fill="none" xmlns="http://www.w3.org/2000/svg">
<path d="M18.6575 34.9607H19.7099V36.0001H18.6575V34.9607Z" fill="#00C4D9"/>
<path d="M28.321 5.29134H26.6944V3.11811C27.2685 2.83465 27.7469 2.26772 27.7469 1.6063C27.7469 0.755906 27.0772 0 26.1204 0H4.78395C3.92284 0 3.15741 0.755906 3.15741 1.6063C3.15741 2.26772 3.6358 2.83465 4.20988 3.11811V5.29134H2.67901C1.24383 5.29134 0 6.4252 0 7.93701V14.2677C0 16.5354 1.62654 18.2362 4.68827 18.9921L7.2716 19.6535C7.36728 19.748 7.46296 19.8425 7.55864 19.937C8.99383 21.3543 10.8117 22.3937 12.821 22.8661V24.9449C12.821 26.3622 11.5772 27.5906 10.142 27.5906H8.03704V32.8819H6.98457V36H17.7006V34.9606H8.13272V33.9213H22.963V34.9606H20.858V36H24.0154V32.8819H22.963V27.5906H20.858C19.4228 27.5906 18.179 26.3622 18.179 24.9449V22.8661C20.1883 22.3937 21.9105 21.3543 23.4414 19.937C23.537 19.8425 23.6327 19.748 23.7284 19.6535L26.3117 18.9921C29.2778 18.2362 31 16.5354 31 14.2677V7.93701C31 6.4252 29.7562 5.29134 28.321 5.29134ZM4.78395 1.03937H26.1204C26.4074 1.03937 26.6944 1.32283 26.6944 1.6063C26.6944 1.88976 26.4074 2.17323 26.1204 2.17323H4.78395C4.49691 2.07874 4.30556 1.88976 4.30556 1.6063C4.30556 1.32283 4.49691 1.03937 4.78395 1.03937ZM21.9105 28.6299V32.8819H9.08951V28.6299H21.9105ZM18.179 27.5906H12.7253C13.3951 26.9291 13.8735 25.9843 13.8735 24.9449V23.1496C14.4475 23.2441 14.9259 23.2441 15.5 23.2441C16.0741 23.2441 16.5525 23.2441 17.1265 23.1496V24.9449C17.1265 25.9843 17.5093 26.9291 18.179 27.5906ZM15.5 22.1102C12.821 22.1102 10.2377 21.0709 8.32407 19.1811C6.41049 17.2913 5.35802 14.7402 5.35802 12.0945V9.44882H4.30556V12.0945C4.30556 14.2677 4.97531 16.4409 6.21914 18.2362L4.97531 17.9528C1.8179 17.1024 1.05247 15.4961 1.05247 14.2677V7.93701C1.05247 7.08661 1.8179 6.33071 2.67901 6.33071H4.30556V8.40945H5.35802V3.11811H25.642V12.0945C25.642 14.7402 24.5895 17.2913 22.6759 19.1811C20.7623 21.0709 18.179 22.1102 15.5 22.1102ZM29.8519 14.2677C29.8519 16.4409 27.7469 17.4803 25.929 17.9528L24.6852 18.2362C25.929 16.4409 26.5988 14.2677 26.5988 12.0945V6.33071H28.2253C29.0864 6.33071 29.8519 7.08661 29.8519 7.93701V14.2677Z" fill="#00C4D9"/>
<path d="M15.9785 9.35437H13.8735V10.3937H14.926V14.6457H13.8735V15.6851H17.0309V14.6457H15.9785V9.35437Z" fill="#00C4D9"/>
<path d="M15.5001 6.14172C11.96 6.14172 9.0896 8.97637 9.0896 12.4724C9.0896 15.9685 11.96 18.8031 15.5001 18.8031C19.0402 18.8031 21.9106 15.9685 21.9106 12.4724C21.9106 8.97637 19.0402 6.14172 15.5001 6.14172ZM15.5001 17.7638C12.534 17.7638 10.1421 15.4016 10.1421 12.4724C10.1421 9.5433 12.534 7.18109 15.5001 7.18109C18.4661 7.18109 20.8581 9.5433 20.8581 12.4724C20.8581 15.4016 18.4661 17.7638 15.5001 17.7638Z" fill="#00C4D9"/>
<path d="M23.5371 4.25195H24.5896V5.29132H23.5371V4.25195Z" fill="#00C4D9"/>
<path d="M23.5371 6.33069H24.5896V7.37006H23.5371V6.33069Z" fill="#00C4D9"/>
<path d="M12.821 30.2362H18.1791V31.2756H12.821V30.2362Z" fill="#00C4D9"/>
</svg>
