<?xml version="1.0" encoding="utf-8"?><svg xmlns="http://www.w3.org/2000/svg" xmlns:xlink="http://www.w3.org/1999/xlink"><symbol viewBox="0 0 16 12" id="back" xmlns="http://www.w3.org/2000/svg"><path d="M5.226.17a.565.565 0 0 1 .806 0 .569.569 0 0 1 0 .798L1.944 5.056h13.491c.315 0 .565.251.565.565 0 .314-.25.572-.565.572H1.943l4.09 4.082a.579.579 0 0 1 0 .806.565.565 0 0 1-.807 0L.169 6.025a.555.555 0 0 1 0-.799L5.226.17z"/></symbol><symbol viewBox="0 0 20 21" id="modal-close" xmlns="http://www.w3.org/2000/svg"><path d="M.09 18.49l17.4-17.4 1.84 1.83L1.92 20.33.09 18.49z"/><path d="M1.83.99l17.18 17.18-1.82 1.82L.01 2.81 1.83.99z"/></symbol><symbol viewBox="0 0 13 13" id="search-reset" xmlns="http://www.w3.org/2000/svg"><path d="M10.556.657L6.314 4.899 2.072.657A1 1 0 1 0 .657 2.072l4.242 4.242-4.242 4.242a1 1 0 1 0 1.415 1.415l4.242-4.242 4.242 4.242a1 1 0 0 0 1.415-1.415L7.729 6.314l4.242-4.242A1 1 0 0 0 10.556.657z"/></symbol><symbol viewBox="0 0 24 24" id="search-submit" xmlns="http://www.w3.org/2000/svg"><path d="M10.21 16.575c-3.58 0-6.365-2.917-6.365-6.365a6.31 6.31 0 0 1 1.857-4.508 6.445 6.445 0 0 1 9.016-.133c2.52 2.387 2.52 6.497.133 9.017l-.133.132a6.314 6.314 0 0 1-4.508 1.857zm13.26 4.243l-4.906-4.906c1.193-1.724 1.856-3.713 1.723-5.702 0-1.326-.265-2.652-.795-3.978-1.061-2.387-2.917-4.376-5.437-5.436a10.014 10.014 0 0 0-7.823 0C3.845 1.856 1.856 3.713.796 6.232a10.014 10.014 0 0 0 0 7.823c1.06 2.387 2.917 4.376 5.436 5.437 1.193.53 2.52.795 3.978.795 1.989 0 4.11-.663 5.702-1.723l4.906 4.906c.397.397.795.53 1.326.53 1.06 0 1.856-.796 1.856-1.856 0-.53-.133-1.061-.53-1.326z"/></symbol></svg>