<svg width="13" height="13" viewBox="0 0 13 13" xmlns="http://www.w3.org/2000/svg">
<path d="M10.5556 0.656844L6.3137 4.89871L2.07183 0.656844C1.68106 0.266078 1.04761 0.266078 0.656844 0.656844C0.266078 1.04761 0.266078 1.68106 0.656844 2.07183L4.89871 6.3137L0.656845 10.5556C0.266079 10.9463 0.266078 11.5798 0.656845 11.9706C1.04761 12.3613 1.68106 12.3613 2.07183 11.9706L6.3137 7.72868L10.5556 11.9706C10.9463 12.3613 11.5798 12.3613 11.9706 11.9706C12.3613 11.5798 12.3613 10.9463 11.9706 10.5556L7.72868 6.3137L11.9706 2.07183C12.3613 1.68106 12.3613 1.04761 11.9706 0.656844C11.5798 0.266078 10.9463 0.266078 10.5556 0.656844Z"/>
</svg>
