<svg width="24" height="24" viewBox="0 0 24 24" xmlns="http://www.w3.org/2000/svg">
<path d="M10.2099 16.5746C6.62983 16.5746 3.8453 13.6575 3.8453 10.2099C3.8453 8.48619 4.50829 6.89503 5.70166 5.70166C8.221 3.18232 12.1989 3.18232 14.7182 5.56906C17.2376 7.9558 17.2376 12.0663 14.8508 14.5856L14.7182 14.7182C13.5249 15.9116 11.9337 16.5746 10.2099 16.5746ZM23.4696 20.8177L18.5635 15.9116C19.7569 14.1878 20.4199 12.1989 20.2873 10.2099C20.2873 8.88398 20.0221 7.55801 19.4917 6.23205C18.4309 3.84531 16.5746 1.85635 14.0552 0.79558C11.5359 -0.265193 8.75138 -0.265193 6.23204 0.79558C3.8453 1.85635 1.85635 3.71271 0.79558 6.23205C-0.265193 8.75138 -0.265193 11.5359 0.79558 14.0553C1.85635 16.442 3.7127 18.4309 6.23204 19.4917C7.42541 20.0221 8.75138 20.2873 10.2099 20.2873C12.1989 20.2873 14.3204 19.6243 15.9116 18.5635L20.8177 23.4696C21.2155 23.8674 21.6133 24 22.1436 24C23.2044 24 24 23.2044 24 22.1436C24 21.6133 23.8674 21.0829 23.4696 20.8177V20.8177Z"/>
</svg>
